<svg width="411" height="199" viewBox="0 0 411 199" fill="none" xmlns="http://www.w3.org/2000/svg" xmlns:xlink="http://www.w3.org/1999/xlink">
<g clip-path="url(#clip0_9737_14001)">
<path d="M0 16C0 7.16345 7.16344 0 16 0H395C403.837 0 411 7.16344 411 16V183C411 191.837 403.837 199 395 199H16C7.16345 199 0 191.837 0 183V16Z" fill="url(#pattern0_9737_14001)" fill-opacity="0.5"/>
<path d="M126 41.2422H524.818C537.94 41.2422 548.577 51.8787 548.577 65V315.4C548.577 328.521 537.94 339.158 524.819 339.158H126C112.879 339.158 102.242 328.522 102.242 315.4V65C102.242 51.8787 112.879 41.2422 126 41.2422Z" fill="white"/>
<path d="M126 41.2422H524.818C537.94 41.2422 548.577 51.8787 548.577 65V315.4C548.577 328.521 537.94 339.158 524.819 339.158H126C112.879 339.158 102.242 328.522 102.242 315.4V65C102.242 51.8787 112.879 41.2422 126 41.2422Z" stroke="#D9D9D9" stroke-width="0.48357"/>
<path d="M120.129 54.5742H116.752C115.286 54.5742 114.411 55.4487 114.411 56.9155V60.2884C114.411 61.7593 115.286 62.6337 116.752 62.6337H120.125C121.592 62.6337 122.467 61.7593 122.467 60.2924V56.9155C122.471 55.4487 121.596 54.5742 120.129 54.5742ZM117.599 60.2924C117.599 60.5503 117.389 60.7599 117.127 60.7599C116.869 60.7599 116.66 60.5503 116.66 60.2924V58.9787C116.66 58.7208 116.869 58.5113 117.127 58.5113C117.389 58.5113 117.599 58.7208 117.599 58.9787V60.2924ZM120.222 60.2924C120.222 60.5503 120.012 60.7599 119.755 60.7599C119.493 60.7599 119.283 60.5503 119.283 60.2924V56.9155C119.283 56.6576 119.493 56.4481 119.755 56.4481C120.012 56.4481 120.222 56.6576 120.222 56.9155V60.2924Z" fill="#007AFF"/>
<path d="M130.072 61.6055H129.184L131.482 55.3123H132.431L134.737 61.6055H133.841L133.275 60.0387H130.629L130.072 61.6055ZM131.848 56.6702L130.89 59.2988H133.023L132.056 56.6702C132.013 56.5483 131.969 56.4003 131.952 56.3046C131.935 56.3916 131.891 56.5396 131.848 56.6702ZM135.435 63.5117V57.3491H136.175L136.235 58.1151C136.523 57.5319 137.097 57.2272 137.776 57.2272C138.995 57.2272 139.752 58.1412 139.752 59.4468C139.752 60.7437 139.038 61.7186 137.776 61.7186C137.097 61.7186 136.531 61.4314 136.253 60.9091V63.5117H135.435ZM136.262 59.4816C136.262 60.3521 136.766 60.9788 137.602 60.9788C138.438 60.9788 138.934 60.3521 138.934 59.4816C138.934 58.6025 138.438 57.9758 137.602 57.9758C136.766 57.9758 136.262 58.5938 136.262 59.4816ZM140.654 63.5117V57.3491H141.394L141.455 58.1151C141.742 57.5319 142.316 57.2272 142.995 57.2272C144.214 57.2272 144.971 58.1412 144.971 59.4468C144.971 60.7437 144.257 61.7186 142.995 61.7186C142.316 61.7186 141.751 61.4314 141.472 60.9091V63.5117H140.654ZM141.481 59.4816C141.481 60.3521 141.986 60.9788 142.821 60.9788C143.657 60.9788 144.153 60.3521 144.153 59.4816C144.153 58.6025 143.657 57.9758 142.821 57.9758C141.986 57.9758 141.481 58.5938 141.481 59.4816ZM148.31 57.3143V58.0628H147.945C147.17 58.0628 146.691 58.5329 146.691 59.3511V61.6055H145.873V57.3578H146.639L146.691 58.0019C146.865 57.558 147.292 57.262 147.875 57.262C148.023 57.262 148.145 57.2794 148.31 57.3143ZM148.646 59.4729C148.646 58.1586 149.586 57.2359 150.866 57.2359C152.136 57.2359 153.076 58.1586 153.076 59.4729C153.076 60.7873 152.136 61.7099 150.866 61.7099C149.586 61.7099 148.646 60.7873 148.646 59.4729ZM149.473 59.4729C149.473 60.3608 150.039 60.9788 150.866 60.9788C151.684 60.9788 152.258 60.3608 152.258 59.4729C152.258 58.5851 151.684 57.9671 150.866 57.9671C150.039 57.9671 149.473 58.5851 149.473 59.4729ZM154.979 61.6055L153.264 57.3491H154.135L155.066 59.7253C155.214 60.1257 155.336 60.4826 155.406 60.7437C155.475 60.4652 155.615 60.0996 155.763 59.7253L156.711 57.3491H157.564L155.789 61.6055H154.979ZM159.265 61.7099C158.351 61.7099 157.811 61.1964 157.811 60.4217C157.811 59.6383 158.394 59.1509 159.395 59.0725L160.736 58.9681V58.8462C160.736 58.1325 160.309 57.88 159.735 57.88C159.047 57.88 158.655 58.1847 158.655 58.6982H157.941C157.941 57.8104 158.673 57.2272 159.769 57.2272C160.823 57.2272 161.536 57.7843 161.536 58.9333V61.6055H160.84L160.753 60.9178C160.535 61.4053 159.952 61.7099 159.265 61.7099ZM159.5 61.0745C160.274 61.0745 160.744 60.5697 160.744 59.7689V59.5426L159.656 59.6296C158.934 59.6992 158.638 59.9778 158.638 60.3956C158.638 60.8482 158.969 61.0745 159.5 61.0745ZM163.505 61.6055H162.687V55.1991H163.505V61.6055ZM169.527 57.3143V58.0628H169.161C168.387 58.0628 167.908 58.5329 167.908 59.3511V61.6055H167.09V57.3578H167.856L167.908 58.0019C168.082 57.558 168.508 57.262 169.092 57.262C169.24 57.262 169.361 57.2794 169.527 57.3143ZM171.369 61.7099C170.455 61.7099 169.915 61.1964 169.915 60.4217C169.915 59.6383 170.498 59.1509 171.499 59.0725L172.84 58.9681V58.8462C172.84 58.1325 172.413 57.88 171.839 57.88C171.151 57.88 170.76 58.1847 170.76 58.6982H170.046C170.046 57.8104 170.777 57.2272 171.874 57.2272C172.927 57.2272 173.641 57.7843 173.641 58.9333V61.6055H172.944L172.857 60.9178C172.64 61.4053 172.057 61.7099 171.369 61.7099ZM171.604 61.0745C172.379 61.0745 172.849 60.5697 172.849 59.7689V59.5426L171.761 59.6296C171.038 59.6992 170.742 59.9778 170.742 60.3956C170.742 60.8482 171.073 61.0745 171.604 61.0745ZM175.907 61.6055H175.089V58.0367H174.253V57.3491H175.089V56.0173H175.907V57.3491H176.743V58.0367H175.907V61.6055ZM177.877 56.3394C177.581 56.3394 177.338 56.0957 177.338 55.7997C177.338 55.4951 177.581 55.2601 177.877 55.2601C178.173 55.2601 178.417 55.4951 178.417 55.7997C178.417 56.0957 178.173 56.3394 177.877 56.3394ZM177.477 61.6055V57.3491H178.295V61.6055H177.477ZM180.301 61.6055H179.483V57.3491H180.223L180.31 58.0019C180.58 57.5145 181.119 57.2272 181.72 57.2272C182.843 57.2272 183.356 57.9149 183.356 59.0029V61.6055H182.538V59.1857C182.538 58.324 182.138 57.9758 181.511 57.9758C180.745 57.9758 180.301 58.5242 180.301 59.3511V61.6055ZM184.22 59.3685C184.22 58.1673 184.994 57.2272 186.23 57.2272C186.918 57.2272 187.449 57.5406 187.719 58.0715L187.78 57.3491H188.511V61.4314C188.511 62.7718 187.684 63.6249 186.378 63.6249C185.221 63.6249 184.429 62.972 184.272 61.8927H185.09C185.195 62.5194 185.665 62.885 186.378 62.885C187.179 62.885 187.702 62.3627 187.702 61.5532V60.7002C187.423 61.1964 186.866 61.4923 186.196 61.4923C184.986 61.4923 184.22 60.561 184.22 59.3685ZM185.038 59.3511C185.038 60.1519 185.534 60.7786 186.335 60.7786C187.162 60.7786 187.667 60.1867 187.667 59.3511C187.667 58.5329 187.179 57.941 186.344 57.941C185.525 57.941 185.038 58.5677 185.038 59.3511Z" fill="#262626"/>
<path d="M129.099 101.379L114.94 101.408V99.2321L121.7 93.4003C125.095 90.4698 126.053 89.0481 126.053 86.8141C126.053 84.1738 124.544 82.607 122.02 82.607C119.437 82.607 117.755 84.4929 117.696 87.4814H114.853C114.94 82.9842 117.784 80.0537 122.049 80.0537C126.256 80.0537 128.954 82.607 128.954 86.64C128.954 89.6284 127.474 91.7465 123.76 94.967L119.408 98.7389H129.099V101.379ZM130.356 80.4309H145.009V83.0422L137.059 101.408H134.099L142.136 83.0422H130.356V80.4309ZM157.007 85.3924C157.007 88.4969 154.802 90.731 151.697 90.731C148.622 90.731 146.417 88.4969 146.417 85.3924C146.417 82.2588 148.622 80.0247 151.697 80.0247C154.802 80.0247 157.007 82.2588 157.007 85.3924ZM168.061 80.4599L152.132 101.408H149.347L165.276 80.4599H168.061ZM154.773 85.3924C154.773 83.5064 153.525 82.2008 151.697 82.2008C149.898 82.2008 148.651 83.5064 148.651 85.3924C148.651 87.2493 149.898 88.5549 151.697 88.5549C153.496 88.5549 154.773 87.2493 154.773 85.3924ZM171.05 96.4468C171.05 99.5513 168.816 101.785 165.74 101.785C162.665 101.785 160.431 99.5513 160.431 96.4468C160.431 93.3132 162.665 91.1082 165.74 91.1082C168.816 91.1082 171.05 93.3132 171.05 96.4468ZM168.787 96.4468C168.787 94.5608 167.568 93.2552 165.74 93.2552C163.941 93.2552 162.694 94.5608 162.694 96.4468C162.694 98.3037 163.941 99.6093 165.74 99.6093C167.539 99.6093 168.787 98.3037 168.787 96.4468Z" fill="#262626"/>
<path d="M122.639 116.169L121.086 114.617L120.138 113.664C119.737 113.263 119.084 113.263 118.683 113.664L116.178 116.169C115.849 116.498 116.086 117.059 116.546 117.059H119.258H122.271C122.735 117.059 122.967 116.498 122.639 116.169Z" fill="#34C759"/>
<path d="M128.826 117.704L125.522 117.711V117.203L127.1 115.842C127.892 115.159 128.115 114.827 128.115 114.306C128.115 113.69 127.763 113.324 127.174 113.324C126.572 113.324 126.179 113.764 126.166 114.461H125.502C125.522 113.412 126.186 112.728 127.181 112.728C128.163 112.728 128.792 113.324 128.792 114.265C128.792 114.962 128.447 115.457 127.58 116.208L126.565 117.088H128.826V117.704ZM130.099 117.792C129.835 117.792 129.611 117.576 129.611 117.318C129.611 117.054 129.835 116.838 130.099 116.838C130.356 116.838 130.579 117.054 130.579 117.318C130.579 117.576 130.356 117.792 130.099 117.792ZM132.867 117.792C131.865 117.792 131.215 117.156 131.215 116.181H131.872C131.872 116.811 132.258 117.196 132.88 117.196C133.544 117.196 133.97 116.756 133.97 116.093C133.97 115.463 133.571 114.996 132.887 114.996C132.474 114.996 132.095 115.193 131.872 115.47L131.31 115.328L131.906 112.816H134.356V113.426H132.386L132.061 114.725C132.319 114.529 132.643 114.427 133.009 114.427C134.004 114.427 134.647 115.125 134.647 116.066C134.647 117.081 133.923 117.792 132.867 117.792ZM137.645 113.974C137.645 114.698 137.131 115.22 136.406 115.22C135.689 115.22 135.174 114.698 135.174 113.974C135.174 113.243 135.689 112.721 136.406 112.721C137.131 112.721 137.645 113.243 137.645 113.974ZM140.225 112.823L136.508 117.711H135.858L139.575 112.823H140.225ZM137.124 113.974C137.124 113.534 136.833 113.229 136.406 113.229C135.987 113.229 135.696 113.534 135.696 113.974C135.696 114.407 135.987 114.712 136.406 114.712C136.826 114.712 137.124 114.407 137.124 113.974ZM140.922 116.553C140.922 117.278 140.401 117.799 139.683 117.799C138.965 117.799 138.444 117.278 138.444 116.553C138.444 115.822 138.965 115.308 139.683 115.308C140.401 115.308 140.922 115.822 140.922 116.553ZM140.394 116.553C140.394 116.113 140.11 115.809 139.683 115.809C139.263 115.809 138.972 116.113 138.972 116.553C138.972 116.987 139.263 117.291 139.683 117.291C140.103 117.291 140.394 116.987 140.394 116.553ZM143.82 113.615C143.59 113.615 143.4 113.426 143.4 113.195C143.4 112.958 143.59 112.776 143.82 112.776C144.05 112.776 144.24 112.958 144.24 113.195C144.24 113.426 144.05 113.615 143.82 113.615ZM143.509 117.711V114.4H144.145V117.711H143.509ZM145.705 117.711H145.069V114.4H145.644L145.712 114.908C145.922 114.529 146.342 114.306 146.809 114.306C147.682 114.306 148.082 114.84 148.082 115.687V117.711H147.445V115.829C147.445 115.159 147.134 114.888 146.646 114.888C146.051 114.888 145.705 115.314 145.705 115.958V117.711ZM151.62 113.412H150.591V112.816H152.256V117.711H151.62V113.412ZM155.768 117.711H155.131V114.4H155.7L155.761 114.834C155.93 114.522 156.282 114.306 156.749 114.306C157.264 114.306 157.629 114.563 157.799 114.976C157.954 114.563 158.354 114.306 158.868 114.306C159.627 114.306 160.087 114.78 160.087 115.545V117.711H159.464V115.7C159.464 115.179 159.173 114.881 158.726 114.881C158.245 114.881 157.927 115.22 157.927 115.748V117.711H157.298V115.693C157.298 115.172 157.013 114.888 156.567 114.888C156.086 114.888 155.768 115.22 155.768 115.748V117.711ZM160.752 116.052C160.752 115.03 161.484 114.312 162.479 114.312C163.467 114.312 164.198 115.03 164.198 116.052C164.198 117.075 163.467 117.792 162.479 117.792C161.484 117.792 160.752 117.075 160.752 116.052ZM161.396 116.052C161.396 116.743 161.836 117.223 162.479 117.223C163.115 117.223 163.562 116.743 163.562 116.052C163.562 115.362 163.115 114.881 162.479 114.881C161.836 114.881 161.396 115.362 161.396 116.052ZM165.539 117.711H164.903V114.4H165.478L165.546 114.908C165.756 114.529 166.176 114.306 166.643 114.306C167.516 114.306 167.915 114.84 167.915 115.687V117.711H167.279V115.829C167.279 115.159 166.968 114.888 166.48 114.888C165.884 114.888 165.539 115.314 165.539 115.958V117.711ZM169.731 117.711H169.095V114.935H168.445V114.4H169.095V113.365H169.731V114.4H170.381V114.935H169.731V117.711ZM171.589 117.704H170.952V112.728H171.589V114.908C171.798 114.549 172.198 114.306 172.712 114.306C173.559 114.306 173.965 114.84 173.965 115.687V117.711H173.328V115.829C173.328 115.159 173.01 114.888 172.536 114.888C171.92 114.888 171.589 115.335 171.589 115.903V117.704Z" fill="#737373"/>
<path d="M114.871 139.189H113.842V138.594H115.508V143.488H114.871V139.189ZM116.403 141.044C116.403 139.528 117.189 138.499 118.421 138.499C119.646 138.499 120.431 139.528 120.431 141.044C120.431 142.568 119.68 143.576 118.421 143.576C117.155 143.576 116.403 142.568 116.403 141.044ZM117.06 141.044C117.06 142.249 117.561 142.981 118.421 142.981C119.28 142.981 119.775 142.249 119.775 141.044C119.775 139.826 119.28 139.095 118.421 139.095C117.561 139.095 117.06 139.826 117.06 141.044ZM121.097 141.044C121.097 139.528 121.883 138.499 123.115 138.499C124.34 138.499 125.125 139.528 125.125 141.044C125.125 142.568 124.374 143.576 123.115 143.576C121.849 143.576 121.097 142.568 121.097 141.044ZM121.754 141.044C121.754 142.249 122.255 142.981 123.115 142.981C123.974 142.981 124.469 142.249 124.469 141.044C124.469 139.826 123.974 139.095 123.115 139.095C122.255 139.095 121.754 139.826 121.754 141.044Z" fill="#737373"/>
<path d="M116.787 158.192L115.643 159.742H114.871L116.097 158.117C115.928 158.185 115.752 158.219 115.582 158.219C114.567 158.219 113.883 157.488 113.883 156.513C113.883 155.497 114.655 154.759 115.664 154.759C116.679 154.759 117.464 155.524 117.464 156.52C117.464 157.095 117.288 157.508 116.787 158.192ZM116.787 156.513C116.787 155.843 116.327 155.355 115.664 155.355C115.014 155.355 114.553 155.843 114.553 156.513C114.553 157.183 115.014 157.657 115.664 157.657C116.327 157.657 116.787 157.183 116.787 156.513ZM118.076 157.298C118.076 155.782 118.861 154.753 120.093 154.753C121.319 154.753 122.104 155.782 122.104 157.298C122.104 158.821 121.353 159.83 120.093 159.83C118.827 159.83 118.076 158.821 118.076 157.298ZM118.733 157.298C118.733 158.503 119.234 159.234 120.093 159.234C120.953 159.234 121.447 158.503 121.447 157.298C121.447 156.08 120.953 155.348 120.093 155.348C119.234 155.348 118.733 156.08 118.733 157.298Z" fill="#737373"/>
<path d="M113.924 174.635C113.924 174.046 114.269 173.572 114.811 173.376C114.35 173.18 114.1 172.794 114.1 172.3C114.1 171.535 114.756 171.013 115.731 171.013C116.693 171.013 117.342 171.535 117.342 172.306C117.342 172.807 117.085 173.193 116.625 173.376C117.173 173.552 117.525 174.04 117.525 174.642C117.525 175.502 116.808 176.077 115.724 176.077C114.635 176.077 113.924 175.502 113.924 174.635ZM114.709 172.34C114.709 172.821 115.108 173.132 115.718 173.132C116.334 173.132 116.72 172.828 116.72 172.354C116.72 171.887 116.334 171.589 115.718 171.589C115.108 171.589 114.709 171.887 114.709 172.34ZM114.574 174.588C114.574 175.136 115.027 175.488 115.724 175.488C116.415 175.488 116.869 175.136 116.869 174.588C116.869 174.046 116.422 173.701 115.718 173.701C115.02 173.701 114.574 174.046 114.574 174.588ZM118.168 173.552C118.168 172.036 118.954 171.007 120.186 171.007C121.411 171.007 122.197 172.036 122.197 173.552C122.197 175.075 121.445 176.084 120.186 176.084C118.92 176.084 118.168 175.075 118.168 173.552ZM118.825 173.552C118.825 174.757 119.326 175.488 120.186 175.488C121.046 175.488 121.54 174.757 121.54 173.552C121.54 172.334 121.046 171.602 120.186 171.602C119.326 171.602 118.825 172.334 118.825 173.552Z" fill="#737373"/>
<path d="M113.66 187.353H117.078V187.963L115.223 192.248H114.533L116.408 187.963H113.66V187.353ZM117.349 189.804C117.349 188.288 118.134 187.259 119.366 187.259C120.591 187.259 121.377 188.288 121.377 189.804C121.377 191.327 120.625 192.336 119.366 192.336C118.1 192.336 117.349 191.327 117.349 189.804ZM118.005 189.804C118.005 191.009 118.506 191.74 119.366 191.74C120.226 191.74 120.72 191.009 120.72 189.804C120.72 188.585 120.226 187.854 119.366 187.854C118.506 187.854 118.005 188.585 118.005 189.804Z" fill="#737373"/>
<g clip-path="url(#clip1_9737_14001)">
<path d="M135.277 146.882C135.277 141.142 139.93 136.488 145.671 136.488H526.819C532.559 136.488 537.213 141.142 537.213 146.882V300.663C537.213 306.403 532.559 311.057 526.819 311.057H145.671C139.93 311.057 135.277 306.403 135.277 300.663V146.882Z" fill="url(#pattern1_9737_14001)"/>
<path d="M25.5083 357.379L161.566 264.014C164.454 262.032 168.189 261.766 171.329 263.321L255.485 304.982C258.185 306.319 261.355 306.321 264.057 304.987L353.555 260.803L487.23 193.457C490.069 192.026 493.43 192.083 496.22 193.608L688.589 298.77" stroke="#007AFF" stroke-width="0.96714"/>
<path d="M25.5083 357.379L161.566 264.014C164.454 262.032 168.189 261.766 171.329 263.321L255.485 304.982C258.185 306.319 261.355 306.321 264.057 304.987L353.555 260.803L487.23 193.457C490.069 192.026 493.43 192.083 496.22 193.608L688.589 298.77" stroke="#007AFF" stroke-width="1.45071"/>
<path d="M25.5083 357.379L161.566 264.014C164.454 262.032 168.189 261.766 171.329 263.321L255.485 304.982C258.185 306.319 261.355 306.321 264.057 304.987L353.555 260.803L487.23 193.457C490.069 192.026 493.43 192.083 496.22 193.608L688.589 298.77" stroke="#007AFF" stroke-width="1.45071"/>
<path d="M161.566 264.014L29.7075 354.498C27.0791 356.301 25.5083 359.284 25.5083 362.472V373.045C25.5083 378.386 29.8383 382.716 35.1797 382.716H678.918C684.259 382.716 688.589 378.386 688.589 373.045V304.505C688.589 300.969 686.66 297.715 683.557 296.019L496.22 193.608C493.43 192.083 490.069 192.026 487.23 193.457L353.555 260.803L264.057 304.987C261.355 306.321 258.185 306.319 255.485 304.982L171.329 263.321C168.189 261.766 164.454 262.032 161.566 264.014Z" fill="url(#paint0_linear_9737_14001)"/>
</g>
</g>
<defs>
<linearGradient id="paint0_linear_9737_14001" x1="318.655" y1="163.094" x2="303.569" y2="462.306" gradientUnits="userSpaceOnUse">
<stop stop-color="#CCE4FF"/>
<stop offset="1" stop-color="#CCE4FF" stop-opacity="0"/>
</linearGradient>
<clipPath id="clip0_9737_14001">
<path d="M0 16C0 7.16345 7.16344 0 16 0H395C403.837 0 411 7.16344 411 16V183C411 191.837 403.837 199 395 199H16C7.16345 199 0 191.837 0 183V16Z" fill="white"/>
</clipPath>
<clipPath id="clip1_9737_14001">
<path d="M135.277 146.882C135.277 141.142 139.93 136.488 145.671 136.488H526.819C532.559 136.488 537.213 141.142 537.213 146.882V300.663C537.213 306.403 532.559 311.057 526.819 311.057H145.671C139.93 311.057 135.277 306.403 135.277 300.663V146.882Z" fill="white"/>
</clipPath>
<pattern id="pattern0_9737_14001" patternUnits="userSpaceOnUse" viewBox="-385 70 10.14 10.14" width="1.8503649608932273%" height="3.8216080348096302%" patternContentUnits="objectBoundingBox">
<path d="M-385 73C-385 71.3431 -383.657 70 -382 70C-380.343 70 -379 71.3431 -379 73C-379 74.6569 -380.343 76 -382 76C-383.657 76 -385 74.6569 -385 73Z" fill="#007AFF"/>
</pattern><pattern id="pattern1_9737_14001" patternUnits="userSpaceOnUse" viewBox="-4802.1 -29769 36.4466 36.4466" width="2.4348363445446015%" height="5.6060897437733948%" patternContentUnits="objectBoundingBox">
<circle cx="-4798.02" cy="-29764.9" r="4.08594" fill-opacity="0.2"/>
</pattern></defs>
</svg>
