<svg width="334" height="334" viewBox="0 0 334 334" fill="none" xmlns="http://www.w3.org/2000/svg">
<circle cx="174.417" cy="167" r="61.8056" fill="#F1F1F1"/>
<rect x="84.8401" y="126.508" width="63.2778" height="63.2778" rx="30.5" transform="rotate(-23.8621 84.8401 126.508)" fill="white" stroke="#CCCCCC"/>
<rect x="104.986" y="142.731" width="11.125" height="3.70833" transform="rotate(-23.8621 104.986 142.731)" fill="#999999"/>
<rect x="130.986" y="131.23" width="11.125" height="3.70833" transform="rotate(-23.8621 130.986 131.23)" fill="#999999"/>
<rect x="119.03" y="150.035" width="21.0139" height="3.70833" transform="rotate(-23.8621 119.03 150.035)" fill="#999999"/>
<rect x="184.806" y="161.319" width="70.6944" height="70.6944" rx="15.5" fill="#FAFAFA" stroke="#CCCCCC"/>
<rect x="193.458" y="169.972" width="53.3889" height="53.3889" rx="15.5" fill="white" stroke="#CCCCCC"/>
<path d="M204.232 179.361H202.847V180.746H204.232V179.361Z" fill="#AAAAAA"/>
<path d="M205.616 179.361H204.232V180.746H205.616V179.361Z" fill="#AAAAAA"/>
<path d="M207.001 179.361H205.616V180.746H207.001V179.361Z" fill="#AAAAAA"/>
<path d="M208.385 179.361H207.001V180.746H208.385V179.361Z" fill="#AAAAAA"/>
<path d="M209.769 179.361H208.385V180.746H209.769V179.361Z" fill="#AAAAAA"/>
<path d="M211.154 179.361H209.769V180.746H211.154V179.361Z" fill="#AAAAAA"/>
<path d="M212.538 179.361H211.154V180.746H212.538V179.361Z" fill="#AAAAAA"/>
<path d="M215.307 179.361H213.923V180.746H215.307V179.361Z" fill="#AAAAAA"/>
<path d="M216.692 179.361H215.307V180.746H216.692V179.361Z" fill="#AAAAAA"/>
<path d="M218.076 179.361H216.692V180.746H218.076V179.361Z" fill="#AAAAAA"/>
<path d="M220.845 179.361H219.461V180.746H220.845V179.361Z" fill="#AAAAAA"/>
<path d="M223.614 179.361H222.229V180.746H223.614V179.361Z" fill="#AAAAAA"/>
<path d="M226.383 179.361H224.998V180.746H226.383V179.361Z" fill="#AAAAAA"/>
<path d="M229.152 179.361H227.767V180.746H229.152V179.361Z" fill="#AAAAAA"/>
<path d="M230.536 179.361H229.152V180.746H230.536V179.361Z" fill="#AAAAAA"/>
<path d="M231.921 179.361H230.536V180.746H231.921V179.361Z" fill="#AAAAAA"/>
<path d="M233.305 179.361H231.921V180.746H233.305V179.361Z" fill="#AAAAAA"/>
<path d="M234.689 179.361H233.305V180.746H234.689V179.361Z" fill="#AAAAAA"/>
<path d="M236.074 179.361H234.689V180.746H236.074V179.361Z" fill="#AAAAAA"/>
<path d="M237.458 179.361H236.074V180.746H237.458V179.361Z" fill="#AAAAAA"/>
<path d="M204.232 180.746H202.847V182.13H204.232V180.746Z" fill="#AAAAAA"/>
<path d="M212.538 180.746H211.154V182.13H212.538V180.746Z" fill="#AAAAAA"/>
<path d="M216.692 180.746H215.307V182.13H216.692V180.746Z" fill="#AAAAAA"/>
<path d="M218.076 180.746H216.692V182.13H218.076V180.746Z" fill="#AAAAAA"/>
<path d="M223.614 180.746H222.229V182.13H223.614V180.746Z" fill="#AAAAAA"/>
<path d="M226.383 180.746H224.998V182.13H226.383V180.746Z" fill="#AAAAAA"/>
<path d="M229.152 180.746H227.767V182.13H229.152V180.746Z" fill="#AAAAAA"/>
<path d="M237.458 180.746H236.074V182.13H237.458V180.746Z" fill="#AAAAAA"/>
<path d="M204.232 182.13H202.847V183.514H204.232V182.13Z" fill="#AAAAAA"/>
<path d="M207.001 182.13H205.616V183.514H207.001V182.13Z" fill="#AAAAAA"/>
<path d="M208.385 182.13H207.001V183.514H208.385V182.13Z" fill="#AAAAAA"/>
<path d="M209.769 182.13H208.385V183.514H209.769V182.13Z" fill="#AAAAAA"/>
<path d="M212.538 182.13H211.154V183.514H212.538V182.13Z" fill="#AAAAAA"/>
<path d="M215.307 182.13H213.923V183.514H215.307V182.13Z" fill="#AAAAAA"/>
<path d="M216.692 182.13H215.307V183.514H216.692V182.13Z" fill="#AAAAAA"/>
<path d="M218.076 182.13H216.692V183.514H218.076V182.13Z" fill="#AAAAAA"/>
<path d="M219.461 182.13H218.076V183.514H219.461V182.13Z" fill="#AAAAAA"/>
<path d="M222.229 182.13H220.845V183.514H222.229V182.13Z" fill="#AAAAAA"/>
<path d="M229.152 182.13H227.767V183.514H229.152V182.13Z" fill="#AAAAAA"/>
<path d="M231.921 182.13H230.536V183.514H231.921V182.13Z" fill="#AAAAAA"/>
<path d="M233.305 182.13H231.921V183.514H233.305V182.13Z" fill="#AAAAAA"/>
<path d="M234.689 182.13H233.305V183.514H234.689V182.13Z" fill="#AAAAAA"/>
<path d="M237.458 182.13H236.074V183.514H237.458V182.13Z" fill="#AAAAAA"/>
<path d="M204.232 183.514H202.847V184.899H204.232V183.514Z" fill="#AAAAAA"/>
<path d="M207.001 183.514H205.616V184.899H207.001V183.514Z" fill="#AAAAAA"/>
<path d="M208.385 183.514H207.001V184.899H208.385V183.514Z" fill="#AAAAAA"/>
<path d="M209.769 183.514H208.385V184.899H209.769V183.514Z" fill="#AAAAAA"/>
<path d="M212.538 183.514H211.154V184.899H212.538V183.514Z" fill="#AAAAAA"/>
<path d="M216.692 183.514H215.307V184.899H216.692V183.514Z" fill="#AAAAAA"/>
<path d="M220.845 183.514H219.461V184.899H220.845V183.514Z" fill="#AAAAAA"/>
<path d="M224.998 183.514H223.614V184.899H224.998V183.514Z" fill="#AAAAAA"/>
<path d="M229.152 183.514H227.767V184.899H229.152V183.514Z" fill="#AAAAAA"/>
<path d="M231.921 183.514H230.536V184.899H231.921V183.514Z" fill="#AAAAAA"/>
<path d="M233.305 183.514H231.921V184.899H233.305V183.514Z" fill="#AAAAAA"/>
<path d="M234.689 183.514H233.305V184.899H234.689V183.514Z" fill="#AAAAAA"/>
<path d="M237.458 183.514H236.074V184.899H237.458V183.514Z" fill="#AAAAAA"/>
<path d="M204.232 184.899H202.847V186.283H204.232V184.899Z" fill="#AAAAAA"/>
<path d="M207.001 184.899H205.616V186.283H207.001V184.899Z" fill="#AAAAAA"/>
<path d="M208.385 184.899H207.001V186.283H208.385V184.899Z" fill="#AAAAAA"/>
<path d="M209.769 184.899H208.385V186.283H209.769V184.899Z" fill="#AAAAAA"/>
<path d="M212.538 184.899H211.154V186.283H212.538V184.899Z" fill="#AAAAAA"/>
<path d="M216.692 184.899H215.307V186.283H216.692V184.899Z" fill="#AAAAAA"/>
<path d="M218.076 184.899H216.692V186.283H218.076V184.899Z" fill="#AAAAAA"/>
<path d="M219.461 184.899H218.076V186.283H219.461V184.899Z" fill="#AAAAAA"/>
<path d="M220.845 184.899H219.461V186.283H220.845V184.899Z" fill="#AAAAAA"/>
<path d="M223.614 184.899H222.229V186.283H223.614L223.614 184.899Z" fill="#AAAAAA"/>
<path d="M226.383 184.899H224.998V186.283H226.383V184.899Z" fill="#AAAAAA"/>
<path d="M229.152 184.899H227.767V186.283H229.152V184.899Z" fill="#AAAAAA"/>
<path d="M231.921 184.899H230.536V186.283H231.921V184.899Z" fill="#AAAAAA"/>
<path d="M233.305 184.899H231.921V186.283H233.305V184.899Z" fill="#AAAAAA"/>
<path d="M234.689 184.899H233.305V186.283H234.689V184.899Z" fill="#AAAAAA"/>
<path d="M237.458 184.899H236.074V186.283H237.458V184.899Z" fill="#AAAAAA"/>
<path d="M204.232 186.283H202.847V187.668H204.232V186.283Z" fill="#AAAAAA"/>
<path d="M212.538 186.283H211.154V187.668H212.538V186.283Z" fill="#AAAAAA"/>
<path d="M218.076 186.283H216.692V187.668H218.076V186.283Z" fill="#AAAAAA"/>
<path d="M222.229 186.283H220.845V187.668H222.229V186.283Z" fill="#AAAAAA"/>
<path d="M223.614 186.283H222.229V187.668H223.614V186.283Z" fill="#AAAAAA"/>
<path d="M226.383 186.283H224.998V187.668H226.383V186.283Z" fill="#AAAAAA"/>
<path d="M229.152 186.283H227.767V187.668H229.152V186.283Z" fill="#AAAAAA"/>
<path d="M237.458 186.283H236.074V187.668H237.458V186.283Z" fill="#AAAAAA"/>
<path d="M204.232 187.668H202.847V189.052H204.232V187.668Z" fill="#AAAAAA"/>
<path d="M205.616 187.668H204.232V189.052H205.616V187.668Z" fill="#AAAAAA"/>
<path d="M207.001 187.668H205.616V189.052H207.001V187.668Z" fill="#AAAAAA"/>
<path d="M208.385 187.668H207.001V189.052H208.385V187.668Z" fill="#AAAAAA"/>
<path d="M209.769 187.668H208.385V189.052H209.769V187.668Z" fill="#AAAAAA"/>
<path d="M211.154 187.668H209.769V189.052H211.154V187.668Z" fill="#AAAAAA"/>
<path d="M212.538 187.668H211.154V189.052H212.538V187.668Z" fill="#AAAAAA"/>
<path d="M215.307 187.668H213.923V189.052H215.307V187.668Z" fill="#AAAAAA"/>
<path d="M218.076 187.668H216.692V189.052H218.076V187.668Z" fill="#AAAAAA"/>
<path d="M220.845 187.668H219.461V189.052H220.845V187.668Z" fill="#AAAAAA"/>
<path d="M223.614 187.668H222.229V189.052H223.614V187.668Z" fill="#AAAAAA"/>
<path d="M226.383 187.668H224.998V189.052H226.383V187.668Z" fill="#AAAAAA"/>
<path d="M229.152 187.668H227.767V189.052H229.152V187.668Z" fill="#AAAAAA"/>
<path d="M230.536 187.668H229.152V189.052H230.536V187.668Z" fill="#AAAAAA"/>
<path d="M231.921 187.668H230.536V189.052H231.921V187.668Z" fill="#AAAAAA"/>
<path d="M233.305 187.668H231.921V189.052H233.305V187.668Z" fill="#AAAAAA"/>
<path d="M234.689 187.668H233.305V189.052H234.689V187.668Z" fill="#AAAAAA"/>
<path d="M236.074 187.668H234.689V189.052H236.074V187.668Z" fill="#AAAAAA"/>
<path d="M237.458 187.668H236.074V189.052H237.458V187.668Z" fill="#AAAAAA"/>
<path d="M215.307 189.052H213.923V190.437H215.307V189.052Z" fill="#AAAAAA"/>
<path d="M218.076 189.052H216.692V190.437H218.076V189.052Z" fill="#AAAAAA"/>
<path d="M220.845 189.052H219.461V190.437H220.845V189.052Z" fill="#AAAAAA"/>
<path d="M222.229 189.052H220.845V190.437H222.229V189.052Z" fill="#AAAAAA"/>
<path d="M224.998 189.052H223.614L223.614 190.437H224.998V189.052Z" fill="#AAAAAA"/>
<path d="M226.383 189.052H224.998V190.437H226.383V189.052Z" fill="#AAAAAA"/>
<path d="M204.232 190.437H202.847V191.821H204.232V190.437Z" fill="#AAAAAA"/>
<path d="M207.001 190.437H205.616V191.821H207.001V190.437Z" fill="#AAAAAA"/>
<path d="M211.154 190.437H209.769V191.821H211.154V190.437Z" fill="#AAAAAA"/>
<path d="M212.538 190.437H211.154V191.821H212.538V190.437Z" fill="#AAAAAA"/>
<path d="M216.692 190.437H215.307V191.821H216.692V190.437Z" fill="#AAAAAA"/>
<path d="M219.461 190.437H218.076V191.821H219.461V190.437Z" fill="#AAAAAA"/>
<path d="M220.845 190.437H219.461V191.821H220.845V190.437Z" fill="#AAAAAA"/>
<path d="M222.229 190.437H220.845V191.821H222.229V190.437Z" fill="#AAAAAA"/>
<path d="M227.767 190.437H226.383V191.821H227.767V190.437Z" fill="#AAAAAA"/>
<path d="M229.152 190.437H227.767V191.821H229.152V190.437Z" fill="#AAAAAA"/>
<path d="M234.689 190.437H233.305V191.821H234.689V190.437Z" fill="#AAAAAA"/>
<path d="M237.458 190.437H236.074V191.821H237.458V190.437Z" fill="#AAAAAA"/>
<path d="M204.232 191.821H202.847V193.206H204.232V191.821Z" fill="#AAAAAA"/>
<path d="M209.769 191.821H208.385V193.206H209.769V191.821Z" fill="#AAAAAA"/>
<path d="M211.154 191.821H209.769V193.206H211.154V191.821Z" fill="#AAAAAA"/>
<path d="M213.923 191.821H212.538V193.206H213.923V191.821Z" fill="#AAAAAA"/>
<path d="M215.307 191.821H213.923V193.206H215.307V191.821Z" fill="#AAAAAA"/>
<path d="M216.692 191.821H215.307V193.206H216.692V191.821Z" fill="#AAAAAA"/>
<path d="M218.076 191.821H216.692V193.206H218.076V191.821Z" fill="#AAAAAA"/>
<path d="M222.229 191.821H220.845V193.206H222.229V191.821Z" fill="#AAAAAA"/>
<path d="M226.383 191.821H224.998V193.206H226.383V191.821Z" fill="#AAAAAA"/>
<path d="M227.767 191.821H226.383V193.206H227.767V191.821Z" fill="#AAAAAA"/>
<path d="M229.152 191.821H227.767V193.206H229.152V191.821Z" fill="#AAAAAA"/>
<path d="M231.921 191.821H230.536V193.206H231.921V191.821Z" fill="#AAAAAA"/>
<path d="M233.305 191.821H231.921V193.206H233.305V191.821Z" fill="#AAAAAA"/>
<path d="M236.074 191.821H234.689V193.206H236.074V191.821Z" fill="#AAAAAA"/>
<path d="M237.458 191.821H236.074V193.206H237.458V191.821Z" fill="#AAAAAA"/>
<path d="M204.232 193.206H202.847V194.59H204.232V193.206Z" fill="#AAAAAA"/>
<path d="M207.001 193.206H205.616V194.59H207.001V193.206Z" fill="#AAAAAA"/>
<path d="M208.385 193.206H207.001V194.59H208.385V193.206Z" fill="#AAAAAA"/>
<path d="M212.538 193.206H211.154V194.59H212.538V193.206Z" fill="#AAAAAA"/>
<path d="M216.692 193.206H215.307V194.59H216.692V193.206Z" fill="#AAAAAA"/>
<path d="M219.461 193.206H218.076V194.59H219.461V193.206Z" fill="#AAAAAA"/>
<path d="M220.845 193.206H219.461V194.59H220.845V193.206Z" fill="#AAAAAA"/>
<path d="M223.614 193.206H222.229V194.59H223.614V193.206Z" fill="#AAAAAA"/>
<path d="M226.383 193.206H224.998V194.59H226.383V193.206Z" fill="#AAAAAA"/>
<path d="M227.767 193.206H226.383V194.59H227.767V193.206Z" fill="#AAAAAA"/>
<path d="M229.152 193.206H227.767V194.59H229.152V193.206Z" fill="#AAAAAA"/>
<path d="M204.232 194.59H202.847V195.974H204.232V194.59Z" fill="#AAAAAA"/>
<path d="M205.616 194.59H204.232V195.974H205.616V194.59Z" fill="#AAAAAA"/>
<path d="M218.076 194.59H216.692V195.974H218.076V194.59Z" fill="#AAAAAA"/>
<path d="M220.845 194.59H219.461V195.974H220.845V194.59Z" fill="#AAAAAA"/>
<path d="M224.998 194.59H223.614L223.614 195.974H224.998V194.59Z" fill="#AAAAAA"/>
<path d="M229.152 194.59H227.767V195.974H229.152V194.59Z" fill="#AAAAAA"/>
<path d="M231.921 194.59H230.536V195.974H231.921V194.59Z" fill="#AAAAAA"/>
<path d="M236.074 194.59H234.689V195.974H236.074V194.59Z" fill="#AAAAAA"/>
<path d="M204.232 195.974H202.847V197.359H204.232V195.974Z" fill="#AAAAAA"/>
<path d="M209.769 195.974H208.385V197.359H209.769V195.974Z" fill="#AAAAAA"/>
<path d="M212.538 195.974H211.154V197.359H212.538V195.974Z" fill="#AAAAAA"/>
<path d="M216.692 195.974H215.307V197.359H216.692V195.974Z" fill="#AAAAAA"/>
<path d="M218.076 195.974H216.692V197.359H218.076V195.974Z" fill="#AAAAAA"/>
<path d="M220.845 195.974H219.461V197.359H220.845V195.974Z" fill="#AAAAAA"/>
<path d="M222.229 195.974H220.845V197.359H222.229V195.974Z" fill="#AAAAAA"/>
<path d="M223.614 195.974H222.229V197.359H223.614L223.614 195.974Z" fill="#AAAAAA"/>
<path d="M224.998 195.974H223.614L223.614 197.359H224.998V195.974Z" fill="#AAAAAA"/>
<path d="M231.921 195.974H230.536V197.359H231.921V195.974Z" fill="#AAAAAA"/>
<path d="M233.305 195.974H231.921V197.359H233.305V195.974Z" fill="#AAAAAA"/>
<path d="M234.689 195.974H233.305V197.359H234.689V195.974Z" fill="#AAAAAA"/>
<path d="M236.074 195.974H234.689V197.359H236.074V195.974Z" fill="#AAAAAA"/>
<path d="M205.616 197.359H204.232V198.743H205.616V197.359Z" fill="#AAAAAA"/>
<path d="M209.769 197.359H208.385V198.743H209.769V197.359Z" fill="#AAAAAA"/>
<path d="M215.307 197.359H213.923V198.743H215.307V197.359Z" fill="#AAAAAA"/>
<path d="M216.692 197.359H215.307V198.743H216.692V197.359Z" fill="#AAAAAA"/>
<path d="M219.461 197.359H218.076V198.743H219.461V197.359Z" fill="#AAAAAA"/>
<path d="M220.845 197.359H219.461V198.743H220.845V197.359Z" fill="#AAAAAA"/>
<path d="M223.614 197.359H222.229V198.743H223.614V197.359Z" fill="#AAAAAA"/>
<path d="M226.383 197.359H224.998V198.743H226.383V197.359Z" fill="#AAAAAA"/>
<path d="M227.767 197.359H226.383V198.743H227.767V197.359Z" fill="#AAAAAA"/>
<path d="M230.536 197.359H229.152V198.743H230.536V197.359Z" fill="#AAAAAA"/>
<path d="M231.921 197.359H230.536V198.743H231.921V197.359Z" fill="#AAAAAA"/>
<path d="M234.689 197.359H233.305V198.743H234.689V197.359Z" fill="#AAAAAA"/>
<path d="M237.458 197.359H236.074V198.743H237.458V197.359Z" fill="#AAAAAA"/>
<path d="M205.616 198.743H204.232V200.128H205.616V198.743Z" fill="#AAAAAA"/>
<path d="M207.001 198.743H205.616V200.128H207.001V198.743Z" fill="#AAAAAA"/>
<path d="M208.385 198.743H207.001V200.128H208.385V198.743Z" fill="#AAAAAA"/>
<path d="M209.769 198.743H208.385V200.128H209.769V198.743Z" fill="#AAAAAA"/>
<path d="M212.538 198.743H211.154V200.128H212.538V198.743Z" fill="#AAAAAA"/>
<path d="M213.923 198.743H212.538V200.128H213.923V198.743Z" fill="#AAAAAA"/>
<path d="M215.307 198.743H213.923V200.128H215.307V198.743Z" fill="#AAAAAA"/>
<path d="M216.692 198.743H215.307V200.128H216.692V198.743Z" fill="#AAAAAA"/>
<path d="M223.614 198.743H222.229V200.128H223.614V198.743Z" fill="#AAAAAA"/>
<path d="M224.998 198.743H223.614V200.128H224.998V198.743Z" fill="#AAAAAA"/>
<path d="M226.383 198.743H224.998V200.128H226.383V198.743Z" fill="#AAAAAA"/>
<path d="M227.767 198.743H226.383V200.128H227.767V198.743Z" fill="#AAAAAA"/>
<path d="M234.689 198.743H233.305V200.128H234.689V198.743Z" fill="#AAAAAA"/>
<path d="M236.074 198.743H234.689V200.128H236.074V198.743Z" fill="#AAAAAA"/>
<path d="M237.458 198.743H236.074V200.128H237.458V198.743Z" fill="#AAAAAA"/>
<path d="M204.232 200.128L202.847 200.128V201.512H204.232V200.128Z" fill="#AAAAAA"/>
<path d="M207.001 200.128H205.616V201.512H207.001V200.128Z" fill="#AAAAAA"/>
<path d="M209.769 200.128H208.385V201.512H209.769V200.128Z" fill="#AAAAAA"/>
<path d="M211.154 200.128H209.769V201.512H211.154V200.128Z" fill="#AAAAAA"/>
<path d="M213.923 200.128H212.538V201.512H213.923V200.128Z" fill="#AAAAAA"/>
<path d="M218.076 200.128L216.692 200.128V201.512H218.076V200.128Z" fill="#AAAAAA"/>
<path d="M220.845 200.128H219.461V201.512H220.845V200.128Z" fill="#AAAAAA"/>
<path d="M224.998 200.128H223.614L223.614 201.512H224.998V200.128Z" fill="#AAAAAA"/>
<path d="M229.152 200.128L227.767 200.128V201.512H229.152V200.128Z" fill="#AAAAAA"/>
<path d="M231.921 200.128H230.536V201.512H231.921V200.128Z" fill="#AAAAAA"/>
<path d="M233.305 200.128L231.921 200.128V201.512H233.305V200.128Z" fill="#AAAAAA"/>
<path d="M204.232 201.512H202.847V202.897H204.232V201.512Z" fill="#AAAAAA"/>
<path d="M205.616 201.512H204.232V202.897H205.616V201.512Z" fill="#AAAAAA"/>
<path d="M207.001 201.512H205.616V202.897H207.001V201.512Z" fill="#AAAAAA"/>
<path d="M212.538 201.512H211.154V202.897H212.538V201.512Z" fill="#AAAAAA"/>
<path d="M213.923 201.512H212.538V202.897H213.923V201.512Z" fill="#AAAAAA"/>
<path d="M220.845 201.512H219.461V202.897H220.845V201.512Z" fill="#AAAAAA"/>
<path d="M222.229 201.512H220.845V202.897H222.229V201.512Z" fill="#AAAAAA"/>
<path d="M223.614 201.512H222.229V202.897H223.614L223.614 201.512Z" fill="#AAAAAA"/>
<path d="M224.998 201.512H223.614L223.614 202.897H224.998V201.512Z" fill="#AAAAAA"/>
<path d="M226.383 201.512H224.998V202.897H226.383V201.512Z" fill="#AAAAAA"/>
<path d="M227.767 201.512H226.383V202.897H227.767V201.512Z" fill="#AAAAAA"/>
<path d="M229.152 201.512H227.767V202.897H229.152V201.512Z" fill="#AAAAAA"/>
<path d="M230.536 201.512H229.152V202.897H230.536V201.512Z" fill="#AAAAAA"/>
<path d="M231.921 201.512H230.536V202.897H231.921V201.512Z" fill="#AAAAAA"/>
<path d="M234.689 201.512H233.305V202.897H234.689V201.512Z" fill="#AAAAAA"/>
<path d="M236.074 201.512H234.689V202.897H236.074V201.512Z" fill="#AAAAAA"/>
<path d="M237.458 201.512H236.074V202.897H237.458V201.512Z" fill="#AAAAAA"/>
<path d="M216.692 202.897H215.307V204.281H216.692V202.897Z" fill="#AAAAAA"/>
<path d="M219.461 202.897H218.076V204.281H219.461V202.897Z" fill="#AAAAAA"/>
<path d="M223.614 202.897H222.229V204.281H223.614V202.897Z" fill="#AAAAAA"/>
<path d="M224.998 202.897H223.614V204.281H224.998V202.897Z" fill="#AAAAAA"/>
<path d="M226.383 202.897H224.998V204.281H226.383V202.897Z" fill="#AAAAAA"/>
<path d="M231.921 202.897H230.536V204.281H231.921V202.897Z" fill="#AAAAAA"/>
<path d="M233.305 202.897H231.921V204.281H233.305V202.897Z" fill="#AAAAAA"/>
<path d="M234.689 202.897H233.305V204.281H234.689V202.897Z" fill="#AAAAAA"/>
<path d="M236.074 202.897H234.689V204.281H236.074V202.897Z" fill="#AAAAAA"/>
<path d="M204.232 204.281H202.847V205.666H204.232V204.281Z" fill="#AAAAAA"/>
<path d="M205.616 204.281H204.232V205.666H205.616V204.281Z" fill="#AAAAAA"/>
<path d="M207.001 204.281H205.616V205.666H207.001V204.281Z" fill="#AAAAAA"/>
<path d="M208.385 204.281H207.001V205.666H208.385V204.281Z" fill="#AAAAAA"/>
<path d="M209.769 204.281H208.385V205.666H209.769V204.281Z" fill="#AAAAAA"/>
<path d="M211.154 204.281H209.769V205.666H211.154V204.281Z" fill="#AAAAAA"/>
<path d="M212.538 204.281H211.154V205.666H212.538V204.281Z" fill="#AAAAAA"/>
<path d="M216.692 204.281H215.307V205.666H216.692V204.281Z" fill="#AAAAAA"/>
<path d="M218.076 204.281H216.692V205.666H218.076V204.281Z" fill="#AAAAAA"/>
<path d="M219.461 204.281H218.076V205.666H219.461V204.281Z" fill="#AAAAAA"/>
<path d="M220.845 204.281H219.461V205.666H220.845V204.281Z" fill="#AAAAAA"/>
<path d="M222.229 204.281H220.845V205.666H222.229V204.281Z" fill="#AAAAAA"/>
<path d="M226.383 204.281H224.998V205.666H226.383V204.281Z" fill="#AAAAAA"/>
<path d="M229.152 204.281H227.767V205.666H229.152V204.281Z" fill="#AAAAAA"/>
<path d="M231.921 204.281H230.536V205.666H231.921V204.281Z" fill="#AAAAAA"/>
<path d="M236.074 204.281H234.689V205.666H236.074V204.281Z" fill="#AAAAAA"/>
<path d="M204.232 205.666H202.847V207.05H204.232V205.666Z" fill="#AAAAAA"/>
<path d="M212.538 205.666H211.154V207.05H212.538V205.666Z" fill="#AAAAAA"/>
<path d="M215.307 205.666H213.923V207.05H215.307V205.666Z" fill="#AAAAAA"/>
<path d="M216.692 205.666H215.307V207.05H216.692V205.666Z" fill="#AAAAAA"/>
<path d="M218.076 205.666H216.692V207.05H218.076V205.666Z" fill="#AAAAAA"/>
<path d="M219.461 205.666H218.076V207.05H219.461V205.666Z" fill="#AAAAAA"/>
<path d="M222.229 205.666H220.845V207.05H222.229V205.666Z" fill="#AAAAAA"/>
<path d="M224.998 205.666H223.614V207.05H224.998V205.666Z" fill="#AAAAAA"/>
<path d="M226.383 205.666H224.998V207.05H226.383V205.666Z" fill="#AAAAAA"/>
<path d="M231.921 205.666H230.536V207.05H231.921V205.666Z" fill="#AAAAAA"/>
<path d="M236.074 205.666H234.689V207.05H236.074V205.666Z" fill="#AAAAAA"/>
<path d="M204.232 207.05H202.847V208.434H204.232V207.05Z" fill="#AAAAAA"/>
<path d="M207.001 207.05H205.616V208.434H207.001V207.05Z" fill="#AAAAAA"/>
<path d="M208.385 207.05H207.001V208.434H208.385V207.05Z" fill="#AAAAAA"/>
<path d="M209.769 207.05H208.385V208.434H209.769V207.05Z" fill="#AAAAAA"/>
<path d="M212.538 207.05H211.154V208.434H212.538V207.05Z" fill="#AAAAAA"/>
<path d="M223.614 207.05H222.229V208.434H223.614L223.614 207.05Z" fill="#AAAAAA"/>
<path d="M226.383 207.05H224.998V208.434H226.383V207.05Z" fill="#AAAAAA"/>
<path d="M227.767 207.05H226.383V208.434H227.767V207.05Z" fill="#AAAAAA"/>
<path d="M229.152 207.05H227.767V208.434H229.152V207.05Z" fill="#AAAAAA"/>
<path d="M230.536 207.05H229.152V208.434H230.536V207.05Z" fill="#AAAAAA"/>
<path d="M231.921 207.05H230.536V208.434H231.921V207.05Z" fill="#AAAAAA"/>
<path d="M233.305 207.05H231.921V208.434H233.305V207.05Z" fill="#AAAAAA"/>
<path d="M234.689 207.05H233.305V208.434H234.689V207.05Z" fill="#AAAAAA"/>
<path d="M236.074 207.05H234.689V208.434H236.074V207.05Z" fill="#AAAAAA"/>
<path d="M237.458 207.05H236.074V208.434H237.458V207.05Z" fill="#AAAAAA"/>
<path d="M204.232 208.434H202.847V209.819H204.232V208.434Z" fill="#AAAAAA"/>
<path d="M207.001 208.434H205.616V209.819H207.001V208.434Z" fill="#AAAAAA"/>
<path d="M208.385 208.434H207.001V209.819H208.385V208.434Z" fill="#AAAAAA"/>
<path d="M209.769 208.434H208.385V209.819H209.769V208.434Z" fill="#AAAAAA"/>
<path d="M212.538 208.434H211.154V209.819H212.538V208.434Z" fill="#AAAAAA"/>
<path d="M216.692 208.434H215.307V209.819H216.692V208.434Z" fill="#AAAAAA"/>
<path d="M219.461 208.434H218.076V209.819H219.461V208.434Z" fill="#AAAAAA"/>
<path d="M224.998 208.434H223.614L223.614 209.819H224.998V208.434Z" fill="#AAAAAA"/>
<path d="M226.383 208.434H224.998V209.819H226.383V208.434Z" fill="#AAAAAA"/>
<path d="M227.767 208.434H226.383V209.819H227.767V208.434Z" fill="#AAAAAA"/>
<path d="M230.536 208.434H229.152V209.819H230.536V208.434Z" fill="#AAAAAA"/>
<path d="M233.305 208.434H231.921V209.819H233.305V208.434Z" fill="#AAAAAA"/>
<path d="M234.689 208.434H233.305V209.819H234.689V208.434Z" fill="#AAAAAA"/>
<path d="M236.074 208.434H234.689V209.819H236.074V208.434Z" fill="#AAAAAA"/>
<path d="M204.232 209.819H202.847V211.203H204.232V209.819Z" fill="#AAAAAA"/>
<path d="M207.001 209.819H205.616V211.203H207.001V209.819Z" fill="#AAAAAA"/>
<path d="M208.385 209.819H207.001V211.203H208.385V209.819Z" fill="#AAAAAA"/>
<path d="M209.769 209.819H208.385V211.203H209.769V209.819Z" fill="#AAAAAA"/>
<path d="M212.538 209.819H211.154V211.203H212.538V209.819Z" fill="#AAAAAA"/>
<path d="M215.307 209.819H213.923V211.203H215.307V209.819Z" fill="#AAAAAA"/>
<path d="M216.692 209.819H215.307V211.203H216.692V209.819Z" fill="#AAAAAA"/>
<path d="M222.229 209.819H220.845V211.203H222.229V209.819Z" fill="#AAAAAA"/>
<path d="M223.614 209.819H222.229V211.203H223.614L223.614 209.819Z" fill="#AAAAAA"/>
<path d="M229.152 209.819H227.767V211.203H229.152V209.819Z" fill="#AAAAAA"/>
<path d="M204.232 211.203H202.847V212.588H204.232V211.203Z" fill="#AAAAAA"/>
<path d="M212.538 211.203H211.154V212.588H212.538V211.203Z" fill="#AAAAAA"/>
<path d="M224.998 211.203H223.614L223.614 212.588H224.998V211.203Z" fill="#AAAAAA"/>
<path d="M226.383 211.203H224.998V212.588H226.383V211.203Z" fill="#AAAAAA"/>
<path d="M227.767 211.203H226.383V212.588H227.767V211.203Z" fill="#AAAAAA"/>
<path d="M230.536 211.203H229.152V212.588H230.536V211.203Z" fill="#AAAAAA"/>
<path d="M234.689 211.203H233.305V212.588H234.689V211.203Z" fill="#AAAAAA"/>
<path d="M204.232 212.588H202.847V213.972H204.232V212.588Z" fill="#AAAAAA"/>
<path d="M205.616 212.588H204.232V213.972H205.616V212.588Z" fill="#AAAAAA"/>
<path d="M207.001 212.588H205.616V213.972H207.001V212.588Z" fill="#AAAAAA"/>
<path d="M208.385 212.588H207.001V213.972H208.385V212.588Z" fill="#AAAAAA"/>
<path d="M209.769 212.588H208.385V213.972H209.769V212.588Z" fill="#AAAAAA"/>
<path d="M211.154 212.588H209.769V213.972H211.154V212.588Z" fill="#AAAAAA"/>
<path d="M212.538 212.588H211.154V213.972H212.538V212.588Z" fill="#AAAAAA"/>
<path d="M215.307 212.588H213.923V213.972H215.307V212.588Z" fill="#AAAAAA"/>
<path d="M216.692 212.588H215.307V213.972H216.692V212.588Z" fill="#AAAAAA"/>
<path d="M218.076 212.588H216.692V213.972H218.076V212.588Z" fill="#AAAAAA"/>
<path d="M219.461 212.588H218.076V213.972H219.461V212.588Z" fill="#AAAAAA"/>
<path d="M220.845 212.588H219.461V213.972H220.845V212.588Z" fill="#AAAAAA"/>
<path d="M222.229 212.588H220.845V213.972H222.229V212.588Z" fill="#AAAAAA"/>
<path d="M223.614 212.588H222.229V213.972H223.614L223.614 212.588Z" fill="#AAAAAA"/>
<path d="M227.767 212.588H226.383V213.972H227.767V212.588Z" fill="#AAAAAA"/>
<path d="M229.152 212.588H227.767V213.972H229.152V212.588Z" fill="#AAAAAA"/>
<path d="M234.689 212.588H233.305V213.972H234.689V212.588Z" fill="#AAAAAA"/>
<path d="M237.458 212.588H236.074V213.972H237.458V212.588Z" fill="#AAAAAA"/>
<circle cx="194.194" cy="107.667" r="6.18056" fill="#C4C4C4"/>
<circle cx="84.1806" cy="196.667" r="5.68056" stroke="#999999"/>
<circle cx="3.70833" cy="3.70833" r="3.70833" transform="matrix(-1 0 0 1 200.375 226.333)" fill="#C4C4C4"/>
</svg>
