<svg width="333" height="334" viewBox="0 0 333 334" fill="none" xmlns="http://www.w3.org/2000/svg">
<circle cx="176.709" cy="167" r="71.7747" fill="#F1F1F1"/>
<mask id="path-2-inside-1_31_14" fill="white">
<path fill-rule="evenodd" clip-rule="evenodd" d="M213.583 225.288H128.992H126.296V225.158C112.375 223.803 101.494 212.068 101.494 197.791C101.494 182.604 113.805 170.293 128.992 170.293C129.172 170.293 129.352 170.294 129.531 170.298V170.293C129.531 147.066 148.36 128.237 171.587 128.237C187.104 128.237 200.659 136.641 207.947 149.146C209.806 148.869 211.707 148.726 213.643 148.726C234.785 148.726 251.924 165.865 251.924 187.007C251.924 206.799 236.905 223.082 217.642 225.082V225.288H213.702C213.682 225.288 213.662 225.288 213.643 225.288C213.623 225.288 213.603 225.288 213.583 225.288Z"/>
</mask>
<path fill-rule="evenodd" clip-rule="evenodd" d="M213.583 225.288H128.992H126.296V225.158C112.375 223.803 101.494 212.068 101.494 197.791C101.494 182.604 113.805 170.293 128.992 170.293C129.172 170.293 129.352 170.294 129.531 170.298V170.293C129.531 147.066 148.36 128.237 171.587 128.237C187.104 128.237 200.659 136.641 207.947 149.146C209.806 148.869 211.707 148.726 213.643 148.726C234.785 148.726 251.924 165.865 251.924 187.007C251.924 206.799 236.905 223.082 217.642 225.082V225.288H213.702C213.682 225.288 213.662 225.288 213.643 225.288C213.623 225.288 213.603 225.288 213.583 225.288Z" fill="#E6E6E6"/>
<path d="M213.583 225.288L213.585 223.729H213.583V225.288ZM126.296 225.288H124.737V226.848H126.296V225.288ZM126.296 225.158H127.856V223.743L126.447 223.606L126.296 225.158ZM129.531 170.298L129.501 171.857L131.091 171.888V170.298H129.531ZM207.947 149.146L206.6 149.932L207.132 150.845L208.178 150.689L207.947 149.146ZM217.642 225.082L217.481 223.531L216.082 223.676V225.082H217.642ZM217.642 225.288V226.848H219.202V225.288H217.642ZM213.702 225.288V223.729H213.7L213.702 225.288ZM213.583 223.729H128.992V226.848H213.583V223.729ZM128.992 223.729H126.296V226.848H128.992V223.729ZM127.856 225.288V225.158H124.737V225.288H127.856ZM126.447 223.606C113.317 222.328 103.054 211.257 103.054 197.791H99.9345C99.9345 212.878 111.432 225.279 126.145 226.71L126.447 223.606ZM103.054 197.791C103.054 183.465 114.667 171.852 128.992 171.852V168.733C112.944 168.733 99.9345 181.742 99.9345 197.791H103.054ZM128.992 171.852C129.162 171.852 129.332 171.854 129.501 171.857L129.561 168.738C129.372 168.735 129.182 168.733 128.992 168.733V171.852ZM131.091 170.298V170.293H127.972V170.298H131.091ZM131.091 170.293C131.091 147.927 149.222 129.797 171.587 129.797V126.677C147.499 126.677 127.972 146.205 127.972 170.293H131.091ZM171.587 129.797C186.527 129.797 199.58 137.886 206.6 149.932L209.295 148.361C201.739 135.396 187.682 126.677 171.587 126.677V129.797ZM208.178 150.689C209.96 150.423 211.785 150.285 213.643 150.285V147.166C211.63 147.166 209.651 147.315 207.717 147.604L208.178 150.689ZM213.643 150.285C233.923 150.285 250.364 166.726 250.364 187.007H253.484C253.484 165.003 235.646 147.166 213.643 147.166V150.285ZM250.364 187.007C250.364 205.991 235.957 221.613 217.481 223.531L217.803 226.633C237.852 224.552 253.484 207.606 253.484 187.007H250.364ZM216.082 225.082V225.288H219.202V225.082H216.082ZM217.642 223.729H213.702V226.848H217.642V223.729ZM213.7 223.729C213.681 223.729 213.662 223.729 213.643 223.729V226.848C213.663 226.848 213.684 226.848 213.705 226.848L213.7 223.729ZM213.643 223.729C213.623 223.729 213.604 223.729 213.585 223.729L213.58 226.848C213.601 226.848 213.622 226.848 213.643 226.848V223.729Z" fill="#CCCCCC" mask="url(#path-2-inside-1_31_14)"/>
<path d="M167.833 176.763C167.833 178.09 167.572 179.405 167.064 180.632C166.556 181.858 165.811 182.973 164.872 183.912C163.933 184.851 162.819 185.595 161.592 186.103C160.365 186.611 159.051 186.873 157.723 186.873C156.395 186.873 155.08 186.611 153.854 186.103C152.627 185.595 151.513 184.851 150.574 183.912C149.635 182.973 148.89 181.858 148.382 180.632C147.874 179.405 147.613 178.09 147.613 176.763H149.841C149.841 177.798 150.045 178.823 150.441 179.779C150.837 180.735 151.418 181.604 152.15 182.336C152.882 183.068 153.751 183.648 154.707 184.044C155.663 184.44 156.688 184.644 157.723 184.644C158.758 184.644 159.783 184.44 160.739 184.044C161.695 183.648 162.564 183.068 163.296 182.336C164.028 181.604 164.608 180.735 165.004 179.779C165.4 178.823 165.604 177.798 165.604 176.763H167.833Z" fill="#CCCCCC"/>
<path d="M201.822 176.763C201.822 178.09 201.56 179.405 201.052 180.632C200.544 181.858 199.8 182.973 198.861 183.912C197.922 184.851 196.807 185.595 195.581 186.103C194.354 186.611 193.039 186.873 191.712 186.873C190.384 186.873 189.069 186.611 187.843 186.103C186.616 185.595 185.501 184.851 184.563 183.912C183.624 182.973 182.879 181.858 182.371 180.632C181.863 179.405 181.601 178.09 181.601 176.763H183.83C183.83 177.798 184.034 178.823 184.43 179.779C184.826 180.735 185.407 181.604 186.139 182.336C186.87 183.068 187.739 183.648 188.696 184.044C189.652 184.44 190.677 184.644 191.712 184.644C192.747 184.644 193.772 184.44 194.728 184.044C195.684 183.648 196.553 183.068 197.285 182.336C198.017 181.604 198.597 180.735 198.993 179.779C199.389 178.823 199.593 177.798 199.593 176.763H201.822Z" fill="#CCCCCC"/>
<rect x="165.214" y="195.172" width="18.1601" height="2.63614" fill="#CCCCCC"/>
<path d="M85.8721 143.556H95.2596V146.638H81.0761V144.387L90.2845 131.124H81.0889V128.016H95.055V130.216L85.8721 143.556Z" fill="#CCCCCC"/>
<path d="M102.26 160.535H108.102V162.453H99.2757V161.053L105.006 152.799H99.2837V150.866H107.974V152.234L102.26 160.535Z" fill="#CCCCCC"/>
</svg>
