<svg width="333" height="333" viewBox="0 0 333 333" fill="none" xmlns="http://www.w3.org/2000/svg">
<circle cx="170.983" cy="177.45" r="78.5991" fill="#F1F1F1"/>
<path d="M240.167 145.781C237.082 156.939 226.966 181.806 208.775 186.429C190.583 191.051 181.944 186.163 180.2 183.838" stroke="#CCCCCC" stroke-width="2"/>
<mask id="path-3-inside-1_31_16" fill="white">
<path fill-rule="evenodd" clip-rule="evenodd" d="M150.686 121.517L133.401 140.095V233.383H208.565V140.095L191.749 121.517H150.686ZM165.776 152.736C170.118 152.736 173.638 149.216 173.638 144.874C173.638 140.531 170.118 137.011 165.776 137.011C161.434 137.011 157.914 140.531 157.914 144.874C157.914 149.216 161.434 152.736 165.776 152.736Z"/>
</mask>
<path fill-rule="evenodd" clip-rule="evenodd" d="M150.686 121.517L133.401 140.095V233.383H208.565V140.095L191.749 121.517H150.686ZM165.776 152.736C170.118 152.736 173.638 149.216 173.638 144.874C173.638 140.531 170.118 137.011 165.776 137.011C161.434 137.011 157.914 140.531 157.914 144.874C157.914 149.216 161.434 152.736 165.776 152.736Z" fill="white"/>
<path d="M133.401 140.095L132.278 139.051L131.868 139.492V140.095H133.401ZM150.686 121.517V119.984H150.018L149.564 120.473L150.686 121.517ZM133.401 233.383H131.868V234.916H133.401V233.383ZM208.565 233.383V234.916H210.098V233.383H208.565ZM208.565 140.095H210.098V139.504L209.702 139.066L208.565 140.095ZM191.749 121.517L192.886 120.488L192.429 119.984H191.749V121.517ZM134.523 141.139L151.808 122.562L149.564 120.473L132.278 139.051L134.523 141.139ZM134.934 233.383V140.095H131.868V233.383H134.934ZM208.565 231.85H133.401V234.916H208.565V231.85ZM207.032 140.095V233.383H210.098V140.095H207.032ZM190.613 122.546L207.429 141.124L209.702 139.066L192.886 120.488L190.613 122.546ZM150.686 123.05H191.749V119.984H150.686V123.05ZM172.105 144.874C172.105 148.369 169.272 151.203 165.776 151.203V154.269C170.965 154.269 175.171 150.063 175.171 144.874H172.105ZM165.776 138.544C169.272 138.544 172.105 141.378 172.105 144.874H175.171C175.171 139.685 170.965 135.478 165.776 135.478V138.544ZM159.447 144.874C159.447 141.378 162.28 138.544 165.776 138.544V135.478C160.587 135.478 156.381 139.685 156.381 144.874H159.447ZM165.776 151.203C162.28 151.203 159.447 148.369 159.447 144.874H156.381C156.381 150.063 160.587 154.269 165.776 154.269V151.203Z" fill="#CCCCCC" mask="url(#path-3-inside-1_31_16)"/>
<path d="M160.513 177.45C160.513 178.465 160.313 179.47 159.925 180.408C159.536 181.346 158.967 182.198 158.249 182.916C157.531 183.633 156.679 184.203 155.741 184.591C154.804 184.98 153.799 185.179 152.784 185.179C151.768 185.179 150.763 184.98 149.826 184.591C148.888 184.203 148.036 183.633 147.318 182.916C146.6 182.198 146.031 181.346 145.642 180.408C145.254 179.47 145.054 178.465 145.054 177.45H146.758C146.758 178.241 146.914 179.025 147.217 179.756C147.52 180.487 147.963 181.151 148.523 181.711C149.082 182.27 149.747 182.714 150.478 183.017C151.209 183.32 151.992 183.475 152.784 183.475C153.575 183.475 154.358 183.32 155.089 183.017C155.82 182.714 156.485 182.27 157.044 181.711C157.604 181.151 158.048 180.487 158.35 179.756C158.653 179.025 158.809 178.241 158.809 177.45H160.513Z" fill="#CCCCCC"/>
<path d="M173.505 197.919C173.505 196.904 173.306 195.899 172.917 194.961C172.529 194.023 171.959 193.171 171.242 192.453C170.524 191.736 169.672 191.166 168.734 190.778C167.796 190.389 166.791 190.189 165.776 190.189C164.761 190.189 163.756 190.389 162.818 190.778C161.88 191.166 161.028 191.736 160.31 192.453C159.593 193.171 159.023 194.023 158.635 194.961C158.246 195.899 158.046 196.904 158.046 197.919H159.75C159.75 197.128 159.906 196.344 160.209 195.613C160.512 194.882 160.956 194.218 161.515 193.658C162.075 193.099 162.739 192.655 163.47 192.352C164.201 192.049 164.985 191.893 165.776 191.893C166.567 191.893 167.351 192.049 168.082 192.352C168.813 192.655 169.477 193.099 170.037 193.658C170.596 194.218 171.04 194.882 171.343 195.613C171.646 196.344 171.801 197.128 171.801 197.919H173.505Z" fill="#CCCCCC"/>
<path d="M186.498 177.45C186.498 178.465 186.298 179.47 185.909 180.408C185.521 181.346 184.952 182.198 184.234 182.916C183.516 183.633 182.664 184.203 181.726 184.591C180.788 184.98 179.783 185.179 178.768 185.179C177.753 185.179 176.748 184.98 175.81 184.591C174.873 184.203 174.02 183.633 173.303 182.916C172.585 182.198 172.016 181.346 171.627 180.408C171.239 179.47 171.039 178.465 171.039 177.45H172.743C172.743 178.241 172.899 179.025 173.202 179.756C173.504 180.487 173.948 181.151 174.508 181.711C175.067 182.27 175.731 182.714 176.462 183.017C177.194 183.32 177.977 183.475 178.768 183.475C179.56 183.475 180.343 183.32 181.074 183.017C181.805 182.714 182.469 182.27 183.029 181.711C183.588 181.151 184.032 180.487 184.335 179.756C184.638 179.025 184.794 178.241 184.794 177.45H186.498Z" fill="#CCCCCC"/>
<rect x="134.354" y="214.787" width="73.2576" height="18.3326" fill="#FAFAFA" stroke="#CCCCCC" stroke-width="1.53302"/>
<circle cx="163.872" cy="99.5889" r="4.26821" fill="#C4C4C4"/>
<circle cx="218.43" cy="101.505" r="1.91628" fill="#C4C4C4"/>
<circle cx="208.267" cy="131.655" r="1.91628" fill="#C4C4C4"/>
<circle cx="236.077" cy="152.079" r="2.49116" fill="#C4C4C4"/>
<circle cx="119.413" cy="92.8295" r="2.49116" fill="#C4C4C4"/>
<path d="M195.211 81.7274L197.504 79.4344L199.162 81.0922L196.869 83.3851L199.46 85.9766L197.714 87.7233L195.122 85.1318L192.823 87.4311L191.165 85.7733L193.464 83.4741L190.981 80.9906L192.728 79.2439L195.211 81.7274Z" fill="#E6E6E6"/>
<path d="M135.17 104.67L137.016 102.824L138.35 104.159L136.505 106.004L138.591 108.091L137.185 109.497L135.098 107.411L133.247 109.262L131.913 107.927L133.764 106.076L131.765 104.077L133.171 102.671L135.17 104.67Z" fill="#E6E6E6"/>
<path d="M110.471 136.021L111.647 134.845L112.497 135.695L111.321 136.872L112.65 138.201L111.754 139.097L110.425 137.768L109.245 138.948L108.395 138.097L109.574 136.917L108.3 135.643L109.196 134.747L110.471 136.021Z" fill="#E6E6E6"/>
<path d="M236.175 124.449L237.351 123.273L238.202 124.123L237.026 125.3L238.355 126.629L237.459 127.525L236.129 126.196L234.95 127.375L234.099 126.525L235.279 125.345L234.005 124.071L234.901 123.175L236.175 124.449Z" fill="#E6E6E6"/>
<path d="M83.418 207.976C87.9264 191.673 102.706 155.339 129.287 148.584C155.867 141.83 168.491 148.972 171.039 152.369" stroke="#CCCCCC" stroke-width="2"/>
</svg>
