<svg width="334" height="334" viewBox="0 0 334 334" fill="none" xmlns="http://www.w3.org/2000/svg">
<circle cx="188.659" cy="148.154" r="53.9693" fill="#F1F1F1"/>
<path d="M204.793 204.335C210.865 203.102 216.263 199.657 219.938 194.668C223.613 189.679 225.303 183.503 224.68 177.338C224.057 171.173 221.166 165.459 216.568 161.306C211.969 157.153 205.992 154.857 199.796 154.863H193.499C191.844 148.453 188.622 142.555 184.124 137.698C179.626 132.841 173.992 129.176 167.728 127.034C161.464 124.892 154.766 124.339 148.236 125.425C141.705 126.511 135.546 129.201 130.313 133.255C125.079 137.309 120.934 142.599 118.249 148.65C115.565 154.702 114.425 161.325 114.933 167.926C115.44 174.526 117.579 180.898 121.157 186.467C124.735 192.037 129.64 196.632 135.432 199.838" stroke="#999999" stroke-width="6.59918" stroke-linecap="round" stroke-linejoin="round"/>
<path d="M174.81 174.853L154.822 204.836H184.804L164.816 234.818" stroke="#999999" stroke-width="6.59918" stroke-linecap="round" stroke-linejoin="round"/>
<path d="M102.874 208.298C104.854 207.893 106.614 206.762 107.812 205.125C109.01 203.487 109.561 201.459 109.358 199.435C109.155 197.411 108.212 195.536 106.713 194.172C105.214 192.809 103.265 192.055 101.244 192.057H99.1912C98.6514 189.953 97.601 188.016 96.1343 186.422C94.6676 184.827 92.8306 183.624 90.7881 182.921C88.7457 182.218 86.5617 182.036 84.4324 182.393C82.303 182.749 80.2949 183.632 78.5883 184.963C76.8817 186.294 75.5301 188.031 74.6548 190.017C73.7795 192.004 73.4079 194.178 73.5734 196.345C73.7389 198.512 74.4363 200.604 75.6029 202.432C76.7696 204.261 78.369 205.769 80.2576 206.822" fill="#EEEEEE"/>
<path d="M253.939 137.656C255.919 137.251 257.679 136.12 258.877 134.482C260.076 132.845 260.627 130.817 260.424 128.793C260.221 126.769 259.278 124.894 257.779 123.53C256.279 122.167 254.33 121.413 252.31 121.415H250.257C249.717 119.311 248.666 117.374 247.2 115.78C245.733 114.185 243.896 112.982 241.854 112.279C239.811 111.576 237.627 111.394 235.498 111.751C233.368 112.107 231.36 112.99 229.654 114.321C227.947 115.652 226.596 117.389 225.72 119.375C224.845 121.362 224.473 123.536 224.639 125.703C224.804 127.87 225.502 129.962 226.668 131.79C227.835 133.619 229.435 135.127 231.323 136.18" fill="#CCCCCC"/>
</svg>
